<svg width="16" height="16" viewBox="0 0 16 16" fill="none" xmlns="http://www.w3.org/2000/svg">
<path d="M8.37043 9.26645C8.33819 9.16252 8.32105 9.05172 8.32105 8.93684C8.32105 8.60526 8.47895 8.28947 8.74737 8.1C9.80526 7.32632 10.3579 5.95263 10.3579 4.38947C10.3579 1.95789 8.82632 0 6.75789 0C4.68947 0 3.15789 1.95789 3.15789 4.38947C3.15789 5.95263 3.72632 7.32632 4.76842 8.1C5.03684 8.30526 5.19474 8.60526 5.19474 8.93684C5.19474 9.42632 4.84737 9.86842 4.37368 9.97895L2.28947 10.4684C0.947369 10.7842 0 11.9842 0 13.3579V14.0211C0 14.5579 0.442105 15 0.978947 15H7.75777C7.27914 14.285 7 13.4251 7 12.5C7 11.2309 7.52535 10.0845 8.37043 9.26645Z" fill="white"/>
<path d="M15.7333 12.3C15.7333 12.4289 15.6289 12.5333 15.5 12.5333H12.5333V15.5C12.5333 15.6289 12.4289 15.7333 12.3 15.7333H11.7C11.5711 15.7333 11.4667 15.6289 11.4667 15.5V12.5333H8.5C8.37113 12.5333 8.26667 12.4289 8.26667 12.3V11.7C8.26667 11.5711 8.37113 11.4667 8.5 11.4667H11.4667V8.5C11.4667 8.37113 11.5711 8.26667 11.7 8.26667H12.3C12.4289 8.26667 12.5333 8.37113 12.5333 8.5V11.4667H15.5C15.6289 11.4667 15.7333 11.5711 15.7333 11.7V12.3Z" fill="white"/>
<path fill-rule="evenodd" clip-rule="evenodd" d="M11.7333 8.53333V11.7333H8.53333V12.2667H11.7333V15.4667H12.2667V12.2667H15.4667V11.7333H12.2667V8.53333H11.7333ZM11.2 8.5C11.2 8.22386 11.4239 8 11.7 8H12.3C12.5761 8 12.8 8.22386 12.8 8.5V11.2H15.5C15.7761 11.2 16 11.4239 16 11.7V12.3C16 12.5761 15.7761 12.8 15.5 12.8H12.8V15.5C12.8 15.7761 12.5761 16 12.3 16H11.7C11.4239 16 11.2 15.7761 11.2 15.5V12.8H8.5C8.22386 12.8 8 12.5761 8 12.3V11.7C8 11.4239 8.22386 11.2 8.5 11.2H11.2V8.5Z" fill="white"/>
</svg>
