<svg width="68" height="32" viewBox="0 0 68 32" fill="none" xmlns="http://www.w3.org/2000/svg">
<g clip-path="url(#clip0_1_4533)">
<path d="M65.2375 9.77778C65.2375 12.6311 62.5822 15.1111 59.9303 15.1111V9.77778L58.1612 9.77787V22.2222H59.9303V16.8889C62.5839 16.8889 65.2375 19.3699 65.2375 22.2222H67.0066C67.0066 18.7198 65.2375 16.8889 62.7865 16C65.2375 15.1111 67.0066 12.8965 67.0066 9.77778H65.2375ZM7.74294 9.77778C7.74294 12.6311 5.08762 15.1111 2.43575 15.1111V9.77778L0.666687 9.77787V22.2222H2.43575V16.8889C5.08934 16.8889 7.74294 19.3699 7.74294 22.2222H9.512C9.512 18.7198 7.74294 16.8889 5.29191 16C7.74294 15.1111 9.512 12.8965 9.512 9.77778H7.74294ZM15.0174 11.5143C15.0052 11.5479 11.2811 21.8429 11.2811 21.8429L13.2428 22.5422C13.2428 22.5422 17.0026 12.145 17.0067 12.13C17.1024 11.8428 17.372 11.8459 17.4606 11.8469C17.6401 11.8462 17.854 11.9004 17.9489 12.1628L21.7028 22.5422L23.6645 21.8429L19.9279 11.5133C19.7253 10.8874 18.9786 9.77891 17.4833 9.77796C15.9448 9.76606 15.216 10.8654 15.0174 11.5143ZM44.8933 16C44.8933 13.5493 46.8772 11.5556 49.3159 11.5556C51.7546 11.5556 53.7386 13.5493 53.7386 16C53.7386 18.4507 51.7546 20.4444 49.3159 20.4444C46.8772 20.4444 44.8933 18.4507 44.8933 16ZM43.1242 16V30.2222H44.8933V20.0089C45.6742 21.3783 47.7563 22.1925 49.3159 22.2222C52.7822 22.1925 55.5749 19.4079 55.5076 16C55.5749 12.5624 52.7822 9.77778 49.3159 9.77778C45.9169 9.77778 43.1242 12.5624 43.1242 16Z" fill="white"/>
<path d="M39.3727 17.9783L40.748 19.0412C40.741 19.0507 39.9778 20.0259 39.0217 21.9147C37.8525 24.2226 37.3416 25.497 37.3364 25.5089L37.3006 25.5883C35.5656 28.9195 32.767 30.4136 29.8139 29.586C28.2421 29.1446 26.9393 28.1272 26.1447 26.7202C25.3501 25.3124 25.158 23.683 25.6042 22.132L29.6479 8.05248C30.006 6.80756 30.8337 5.77472 31.9776 5.1445C33.1224 4.51428 34.447 4.36255 35.7088 4.71602C38.3109 5.44625 39.8267 8.13093 39.088 10.7001L39.0819 10.7191L36.0144 20.5112L36.0196 20.4922C35.4634 22.426 33.5188 23.5175 31.5925 22.9777C30.667 22.7182 29.909 22.1346 29.4576 21.3345C28.9965 20.5181 28.8918 19.549 29.1642 18.6024L31.9654 9.04479L33.6428 9.52414L30.8425 19.0775C30.6993 19.5775 30.749 20.0801 30.9831 20.4948C31.211 20.8983 31.5864 21.1836 32.0693 21.3191C33.07 21.5993 34.0462 21.0414 34.3396 20.0215L34.3457 20.0016C34.3457 20.0016 37.3975 10.2604 37.408 10.2268C37.4892 9.944 37.5285 9.65863 37.5285 9.37758C37.5285 8.01799 36.6204 6.76445 35.2311 6.37477C34.4182 6.14716 33.5651 6.24458 32.8281 6.65065C32.092 7.05585 31.5585 7.72142 31.328 8.5232L27.2842 22.6027C26.6267 24.8891 27.9758 27.2772 30.2915 27.9272C33.2804 28.7652 35.0809 26.0667 35.7306 24.8313C35.8328 24.5813 36.3593 23.3166 37.4595 21.144C38.5039 19.0826 39.3378 18.0222 39.3727 17.9783Z" fill="#EF3124"/>
</g>
<defs>
<clipPath id="clip0_1_4533">
<rect width="66.6667" height="32" fill="white" transform="translate(0.666687)"/>
</clipPath>
</defs>
</svg>
