<svg width="24" height="24" viewBox="0 0 24 24" fill="none" xmlns="http://www.w3.org/2000/svg">
<path fill-rule="evenodd" clip-rule="evenodd" d="M11.708 21.2388L10.2874 21.8751C9.66955 22.1518 8.94234 21.9569 8.54565 21.4084L7.63351 20.147C7.51422 19.9821 7.33023 19.8758 7.12774 19.855L5.57929 19.6957C4.90588 19.6265 4.37352 19.0941 4.30426 18.4207L4.145 16.8723C4.12418 16.6698 4.01795 16.4858 3.853 16.3665L2.59163 15.4543C2.04307 15.0577 1.84822 14.3304 2.12494 13.7126L2.76124 12.292C2.84445 12.1062 2.84445 11.8938 2.76124 11.708L2.12494 10.2874C1.84822 9.66955 2.04307 8.94234 2.59163 8.54565L3.853 7.6335C4.01795 7.51422 4.12418 7.33023 4.145 7.12773L4.30426 5.57929C4.37352 4.90588 4.90588 4.37352 5.57929 4.30426L7.12774 4.145C7.33023 4.12417 7.51422 4.01794 7.63351 3.85299L8.54565 2.59163C8.94234 2.04307 9.66955 1.84822 10.2874 2.12494L11.708 2.76124C11.8938 2.84445 12.1062 2.84445 12.292 2.76124L13.7126 2.12494C14.3304 1.84822 15.0577 2.04307 15.4544 2.59163L16.3665 3.85299C16.4858 4.01794 16.6698 4.12417 16.8723 4.145L18.4207 4.30426C19.0941 4.37352 19.6265 4.90588 19.6957 5.57929L19.855 7.12773C19.8758 7.33023 19.9821 7.51422 20.147 7.6335L21.4084 8.54565C21.9569 8.94234 22.1518 9.66955 21.8751 10.2874L21.2388 11.708C21.1556 11.8938 21.1556 12.1062 21.2388 12.292L21.8751 13.7126C22.1518 14.3304 21.9569 15.0577 21.4084 15.4543L20.147 16.3665C19.9821 16.4858 19.8758 16.6698 19.855 16.8723L19.6957 18.4207C19.6265 19.0941 19.0941 19.6265 18.4207 19.6957L16.8723 19.855C16.6698 19.8758 16.4858 19.9821 16.3665 20.147L15.4544 21.4084C15.0577 21.9569 14.3304 22.1518 13.7126 21.8751L12.292 21.2388C12.1062 21.1556 11.8938 21.1556 11.708 21.2388ZM8.74655 11.2548C8.41178 10.9201 7.86902 10.9201 7.53425 11.2548C7.19949 11.5896 7.19949 12.1324 7.53425 12.4671L10.9978 15.9307L16.6389 10.2896C16.9737 9.95482 16.9737 9.41206 16.6389 9.07729C16.3041 8.74253 15.7614 8.74253 15.4266 9.07729L10.9978 13.5061L8.74655 11.2548Z" fill="#316FEE"/>
</svg>
